Coordinates
version=1
nRows=13
nColumns=38
inDegrees=no

Units are S.I. units (second, meters, Newtons, ...)
If the header above contains a line with 'inDegrees', this indicates whether rotational values are in degrees (yes) or radians (no).

endheader
time	pelvis_tilt	pelvis_list	pelvis_rotation	pelvis_tx	pelvis_ty	pelvis_tz	hip_flexion_r	hip_adduction_r	hip_rotation_r	knee_angle_r	ankle_angle_r	subtalar_angle_r	mtp_angle_r	hip_flexion_l	hip_adduction_l	hip_rotation_l	knee_angle_l	ankle_angle_l	subtalar_angle_l	mtp_angle_l	lumbar_extension	lumbar_bending	lumbar_rotation	arm_flex_r	arm_add_r	arm_rot_r	elbow_flex_r	pro_sup_r	wrist_flex_r	wrist_dev_r	arm_flex_l	arm_add_l	arm_rot_l	elbow_flex_l	pro_sup_l	wrist_flex_l	wrist_dev_l
10	1.43805	1.31325	0.10605	0.637762	2.14299	0.940641	0.059666	0.15383	0.0531295	0.718182	-0.30812	0	0	0.33865	-0.29399	-0.0251075	0.571744	-0.228966	0	0	-0.526194	-0.171577	-0.0662554	0.315076	-0.305455	0.162403	2.04561	1.5708	0	0	0.289576	-0.632279	0.347216	0.766663	1.49691	0	0
10.01	1.56204	1.31855	-0.0134352	0.63746	2.13947	0.942575	0.034309	0.157334	0.0655435	0.718165	-0.319649	0	0	0.306145	-0.291157	-0.0326397	0.566929	-0.234907	0	0	-0.547791	-0.164844	-0.0672566	0.343665	-0.301142	0.176245	2.02477	1.5708	0	0	0.269702	-0.631778	0.342832	0.7664	1.48773	0	0
10.02	1.61126	1.32375	-0.0570979	0.637818	2.13712	0.942768	0.0305293	0.158846	0.0726367	0.72301	-0.322411	0	0	0.296819	-0.285929	-0.0350078	0.566762	-0.236868	0	0	-0.54754	-0.160575	-0.0669634	0.357946	-0.2981	0.183785	2.0052	1.5708	0	0	0.249941	-0.62836	0.337491	0.762113	1.49074	0	0
10.03	1.65448	1.32891	-0.0945225	0.63834	2.135	0.942822	0.0283038	0.159823	0.0789281	0.727127	-0.324799	0	0	0.289639	-0.280148	-0.0353412	0.566544	-0.239092	0	0	-0.545118	-0.157278	-0.0657682	0.368987	-0.294798	0.188704	1.98678	1.5708	0	0	0.230546	-0.624756	0.33053	0.759601	1.49131	0	0
10.04	1.69687	1.33371	-0.130376	0.638799	2.13283	0.942776	0.0264333	0.160506	0.0841707	0.731119	-0.327672	0	0	0.284372	-0.274077	-0.0344705	0.567454	-0.241812	0	0	-0.542011	-0.153675	-0.0634602	0.378113	-0.292154	0.191407	1.96943	1.5708	0	0	0.213519	-0.619491	0.321843	0.756922	1.49224	0	0
10.05	1.73938	1.33824	-0.166713	0.639246	2.1306	0.942705	0.0246097	0.16115	0.090593	0.735954	-0.331639	0	0	0.278661	-0.26847	-0.0348683	0.567652	-0.244177	0	0	-0.538332	-0.149731	-0.0596017	0.386287	-0.290347	0.193245	1.95262	1.5708	0	0	0.19964	-0.612255	0.313395	0.751149	1.49717	0	0
10.06	1.78221	1.34245	-0.204559	0.639804	2.12839	0.942631	0.0223189	0.161588	0.0984211	0.741684	-0.33645	0	0	0.272663	-0.263326	-0.0373884	0.567658	-0.246291	0	0	-0.533897	-0.146101	-0.0538592	0.393552	-0.288741	0.194061	1.93585	1.5708	0	0	0.187772	-0.604626	0.3059	0.744034	1.50398	0	0
10.07	1.82731	1.34581	-0.244096	0.640341	2.12606	0.94261	0.0189098	0.161798	0.106599	0.746796	-0.342208	0	0	0.266847	-0.258247	-0.0393997	0.567509	-0.248542	0	0	-0.53007	-0.141467	-0.047279	0.400229	-0.287256	0.19339	1.91974	1.5708	0	0	0.178044	-0.596835	0.299504	0.737084	1.51029	0	0
10.08	1.82537	1.34992	-0.246652	0.642043	2.12272	0.942045	-0.0228439	0.185077	0.152534	0.636829	-0.350861	0	0	0.272037	-0.257333	-0.0458279	0.569465	-0.251656	0	0	-0.515352	-0.139406	-0.0332938	0.408367	-0.285237	0.194306	1.90172	1.5708	0	0	0.168321	-0.58781	0.287799	0.729201	1.52015	0	0
10.09	1.92451	1.3503	-0.328497	0.641403	2.12118	0.942625	0.0119484	0.160928	0.113978	0.762927	-0.34577	0	0	0.25496	-0.248395	-0.0406176	0.567524	-0.256535	0	0	-0.520603	-0.129219	-0.0350651	0.415358	-0.283366	0.195042	1.88119	1.5708	0	0	0.161411	-0.577571	0.278502	0.715951	1.53643	0	0
10.1	1.97742	1.35073	-0.374572	0.641953	2.11867	0.942731	0.00645798	0.160496	0.114318	0.767849	-0.349286	0	0	0.248457	-0.244639	-0.0413809	0.568135	-0.259274	0	0	-0.518437	-0.122374	-0.0277318	0.421246	-0.281909	0.193178	1.86531	1.5708	0	0	0.155314	-0.571126	0.27624	0.708561	1.54041	0	0
10.11	2.01632	1.33906	-0.414391	0.642439	2.1149	0.944416	-0.0193261	0.165008	0.10095	0.719304	-0.361604	0	0	0.238265	-0.254428	-0.0446637	0.564601	-0.266224	0	0	-0.520776	-0.106426	-0.0105403	0.433754	-0.283461	0.19464	1.84514	1.5708	0	0	0.154848	-0.558758	0.271638	0.693109	1.54189	0	0
10.12	2.0632	1.339	-0.455235	0.643099	2.11212	0.944389	-0.0238992	0.163886	0.100777	0.723396	-0.36553	0	0	0.232762	-0.250479	-0.0454426	0.565088	-0.267379	0	0	-0.518698	-0.0999074	-0.00166005	0.439853	-0.284628	0.192043	1.82706	1.5708	0	0	0.150007	-0.553574	0.270211	0.688501	1.54014	0	0
